# xmcd CD database file
#
# Track frame offsets:
#	150
#	3432
#	23410
#	27130
#	44946
#	47016
#	61660
#	62295
#	74997
#	79594
#	98455
#	112090
#	115927
#	132509
#	133988
#	151409
#	153384
#	162786
#	164743
#	188030
#	194989
#	205779
#	207150
#
# Disc length: 2908 seconds
#
# Revision: 0
# Processed by: cddbd v1.5PL3 Copyright (c) Steve Scherf et al.
# Submitted via: CDex 1.50beta10
#
DISCID=470b5a17
DTITLE=Will Roy Sanders - The Last Living Bluesman
DYEAR=1999
DGENRE=Blues
TTITLE0=Up From Mississippi (Spoken)
TTITLE1=I Smell Trouble
TTITLE2=My First Guitar (Spoken)
TTITLE3=Put Your Loving Arms Around Me
TTITLE4=Cut It Down, Willie (Spoken)
TTITLE5=Please Don't Put Me Outdoors
TTITLE6=I Got So Far Off Into Music (Spoken)
TTITLE7=Black Mattie
TTITLE8=I Thought I Was Somewhere In Church (Spoken)
TTITLE9=Dirt Road
TTITLE10=Ghetto
TTITLE11=Souphous, Ms. (Spoken)
TTITLE12=If Your Momma Quit Tour Papa
TTITLE13=Whiskey? That's My Hobby (Spoken)
TTITLE14=Old Man and Whiskey
TTITLE15=My Guts Ain't Worth Shit (Spoken)
TTITLE16=Saddle Up My Pony
TTITLE17=Ain't But One Thing I Can Do (Spoken)
TTITLE18=Green's Lounge Shuffle
TTITLE19=Big 6 Left Us On A Standstill (Spoken)
TTITLE20=Crosscut Saw - The Binghampton Blues Boys
TTITLE21=I Don't Know One Jazz From Another (Spoken)
TTITLE22=Slim's Twist - The Binghampton Blues Boys
EXTD=YEAR: 1999
EXTT0=
EXTT1=
EXTT2=
EXTT3=
EXTT4=
EXTT5=
EXTT6=
EXTT7=
EXTT8=
EXTT9=
EXTT10=
EXTT11=
EXTT12=
EXTT13=
EXTT14=
EXTT15=
EXTT16=
EXTT17=
EXTT18=
EXTT19=
EXTT20=
EXTT21=
EXTT22=
PLAYORDER=
